<svg width="172" height="172" viewBox="0 0 172 172" fill="none" xmlns="http://www.w3.org/2000/svg">
<g filter="url(#filter0_d_168_51009)">
<path d="M54.1111 95.6667L76.8889 123L108.778 82L149.778 136.667H22.2222M168 145.778V18.2222C168 8.10889 159.8 0 149.778 0H22.2222C17.3894 0 12.7545 1.91983 9.33716 5.33716C5.91983 8.75449 4 13.3894 4 18.2222V145.778C4 150.611 5.91983 155.245 9.33716 158.663C12.7545 162.08 17.3894 164 22.2222 164H149.778C154.611 164 159.245 162.08 162.663 158.663C166.08 155.245 168 150.611 168 145.778Z" fill="#C60000"/>
</g>
<defs>
<filter id="filter0_d_168_51009" x="0" y="0" width="172" height="172" filterUnits="userSpaceOnUse" color-interpolation-filters="sRGB">
<feFlood flood-opacity="0" result="BackgroundImageFix"/>
<feColorMatrix in="SourceAlpha" type="matrix" values="0 0 0 0 0 0 0 0 0 0 0 0 0 0 0 0 0 0 127 0" result="hardAlpha"/>
<feOffset dy="4"/>
<feGaussianBlur stdDeviation="2"/>
<feComposite in2="hardAlpha" operator="out"/>
<feColorMatrix type="matrix" values="0 0 0 0 0 0 0 0 0 0 0 0 0 0 0 0 0 0 0.25 0"/>
<feBlend mode="normal" in2="BackgroundImageFix" result="effect1_dropShadow_168_51009"/>
<feBlend mode="normal" in="SourceGraphic" in2="effect1_dropShadow_168_51009" result="shape"/>
</filter>
</defs>
</svg>
