<svg width="252" height="253" viewBox="0 0 252 253" fill="none" xmlns="http://www.w3.org/2000/svg">
<circle cx="121" cy="121" r="121" fill="url(#paint0_linear_13_49767)"/>
<path d="M121 232.925C121 237.937 116.931 242.035 111.933 241.66C91.1951 240.102 71.1526 233.219 53.776 221.608C33.8776 208.312 18.3688 189.415 9.21057 167.305C0.0523708 145.195 -2.34383 120.866 2.32498 97.3941C6.9938 73.9224 18.5179 52.3622 35.4401 35.4401C52.3622 18.5179 73.9224 6.99379 97.3941 2.32498C120.866 -2.34383 145.195 0.0523761 167.305 9.21058C189.415 18.3688 208.312 33.8777 221.608 53.776C233.219 71.1526 240.102 91.1951 241.66 111.933C242.035 116.931 237.937 121 232.925 121V121C227.913 121 223.892 116.929 223.45 111.936C221.933 94.7924 216.132 78.2504 206.517 63.8596C195.215 46.946 179.152 33.7635 160.359 25.979C141.566 18.1945 120.886 16.1577 100.935 20.1262C80.984 24.0947 62.6579 33.8902 48.2741 48.2741C33.8902 62.6579 24.0947 80.984 20.1262 100.935C16.1577 120.886 18.1945 141.566 25.979 160.359C33.7635 179.152 46.946 195.215 63.8596 206.517C78.2504 216.132 94.7923 221.933 111.936 223.45C116.929 223.892 121 227.913 121 232.925V232.925Z" fill="white"/>
<circle cx="121" cy="121" r="44" fill="#C60000"/>
<ellipse cx="208.5" cy="209" rx="43.5" ry="44" fill="white"/>
<circle cx="209" cy="209" r="20" fill="url(#paint1_linear_13_49767)"/>
<path d="M121 105C123.122 105 125.157 105.843 126.657 107.343C128.157 108.843 129 110.878 129 113C129 115.122 128.157 117.157 126.657 118.657C125.157 120.157 123.122 121 121 121C118.878 121 116.843 120.157 115.343 118.657C113.843 117.157 113 115.122 113 113C113 110.878 113.843 108.843 115.343 107.343C116.843 105.843 118.878 105 121 105ZM121 125C129.84 125 137 128.58 137 133V137H105V133C105 128.58 112.16 125 121 125Z" fill="white"/>
<defs>
<linearGradient id="paint0_linear_13_49767" x1="121" y1="0" x2="121" y2="242" gradientUnits="userSpaceOnUse">
<stop stop-color="#FF0000"/>
<stop offset="1" stop-color="#FF7A00"/>
</linearGradient>
<linearGradient id="paint1_linear_13_49767" x1="209" y1="189" x2="209" y2="229" gradientUnits="userSpaceOnUse">
<stop stop-color="#FF0000"/>
<stop offset="1" stop-color="#FF7A00"/>
</linearGradient>
</defs>
</svg>
